<svg xmlns="http://www.w3.org/2000/svg" width="21.22" height="10.63" viewBox="0 0 21.22 10.63"><defs><style>.cls-1{fill:#231f20;}</style></defs><g id="Layer_2" data-name="Layer 2"><g id="Layer_1-2" data-name="Layer 1"><path class="cls-1" d="M.22,2.45s0,.1,0,.12S.21,2.43.22,2.45Z" transform="translate(-0.2)"/><polygon class="cls-1" points="0.51 2.07 0.51 2.11 0.56 1.99 0.51 2.07"/><path class="cls-1" d="M1.23,1.93c-.1-.16-.18.08-.29,0l0,0v.15C1,2,1.14,1.9,1.23,1.93Z" transform="translate(-0.2)"/><path class="cls-1" d="M1.61,2.22c0-.06,0-.08-.07,0h.07Z" transform="translate(-0.2)"/><path class="cls-1" d="M1.56,2.23c-.05,0,.05,0,0,0Z" transform="translate(-0.2)"/><path class="cls-1" d="M1.8,2.12l-.06.08s.1,0,.08.06S1.86,2.17,1.8,2.12Z" transform="translate(-0.2)"/><path class="cls-1" d="M1.83,2l0,0S1.82,2,1.83,2Z" transform="translate(-0.2)"/><path class="cls-1" d="M1.74,2.09,1.8,2s0-.08,0,0C1.76,2,1.76,2,1.74,2.09Z" transform="translate(-0.2)"/><path class="cls-1" d="M1.69,2.07c-.06,0-.11,0-.06-.11C1.5,2,1.56,2.14,1.69,2.07Z" transform="translate(-0.2)"/><path class="cls-1" d="M1.21,1.74l-.07,0,0,.07S1.23,1.79,1.21,1.74Z" transform="translate(-0.2)"/><path class="cls-1" d="M2.27,2.08S2.22,2,2.2,2l0,.05S2.25,2,2.27,2.08Z" transform="translate(-0.2)"/><path class="cls-1" d="M2.2,2l.06-.09C2.19,1.88,2.18,1.91,2.2,2Z" transform="translate(-0.2)"/><polygon class="cls-1" points="1.59 1.78 1.5 1.95 1.61 1.77 1.59 1.78"/><polygon class="cls-1" points="2.37 2 2.35 2.1 2.39 1.95 2.37 2"/><path class="cls-1" d="M2.76,1.94c0,.07.08.1.06.16a.29.29,0,0,0,.1-.17S2.84,2,2.76,1.94Z" transform="translate(-0.2)"/><path class="cls-1" d="M3,1.83l-.05.1A.19.19,0,0,0,3,1.83Z" transform="translate(-0.2)"/><path class="cls-1" d="M2.4,1.84s0,.08.09.09l-.06-.09Z" transform="translate(-0.2)"/><path class="cls-1" d="M2.43,1.83h0l.07,0Z" transform="translate(-0.2)"/><path class="cls-1" d="M2.39,1.85h0S2.39,1.83,2.39,1.85Z" transform="translate(-0.2)"/><path class="cls-1" d="M2,1.82c0-.07.11-.16,0-.22S2.07,1.71,2,1.82Z" transform="translate(-0.2)"/><path class="cls-1" d="M2.32,1.73H2.23a.13.13,0,0,1,0,.09Z" transform="translate(-0.2)"/><polygon class="cls-1" points="2.15 1.68 2.11 1.73 2.15 1.73 2.15 1.68"/><path class="cls-1" d="M2.8,1.77a.18.18,0,0,1,.11-.08.38.38,0,0,0-.15,0S2.75,1.79,2.8,1.77Z" transform="translate(-0.2)"/><path class="cls-1" d="M2.62,1.79h0S2.61,1.78,2.62,1.79Z" transform="translate(-0.2)"/><polygon class="cls-1" points="3.14 1.58 3.13 1.56 3.13 1.58 3.14 1.58"/><path class="cls-1" d="M2.74,1.68s-.05,0-.06.05l.08,0S2.75,1.67,2.74,1.68Z" transform="translate(-0.2)"/><path class="cls-1" d="M3.08,1.75,3,1.71S3.08,1.78,3.08,1.75Z" transform="translate(-0.2)"/><path class="cls-1" d="M2.65,1.81h0S2.65,1.82,2.65,1.81Z" transform="translate(-0.2)"/><path class="cls-1" d="M2.65,1.81l0-.08-.05.05Z" transform="translate(-0.2)"/><path class="cls-1" d="M3.31.88c0,.09-.05.21-.16.12-.07.1.07.4.18.56,0,0,0-.08,0-.16s-.21-.08-.16-.18.09,0,.16.05c-.07-.11.1-.21,0-.38L3.33,1S3.35.89,3.31.88Z" transform="translate(-0.2)"/><path class="cls-1" d="M3.17,1.59l0,0a.42.42,0,0,1,.15.1c0-.06,0-.1,0-.13l-.17,0Z" transform="translate(-0.2)"/><path class="cls-1" d="M3,1.65c0-.11.07-.18,0-.28s0,.11-.09.17c.15-.07,0,.07.1.1l-.08.05.09,0H3s0,0,0,0H3v0s0,0,0,0H3l.14-.1A.2.2,0,0,0,3,1.65Z" transform="translate(-0.2)"/><path class="cls-1" d="M2,1.35s0,0,0,0S2.06,1.35,2,1.35Z" transform="translate(-0.2)"/><path class="cls-1" d="M2.12,1.39s0,.06,0,.06,0-.05,0-.08-.06.1,0,.13v0c.08,0,.2.12.19.14A.83.83,0,0,0,2.12,1.39Z" transform="translate(-0.2)"/><path class="cls-1" d="M2.56,1.49l.12-.09-.1-.07,0,0C2.52,1.38,2.55,1.45,2.56,1.49Z" transform="translate(-0.2)"/><polygon class="cls-1" points="3.17 1.63 3.17 1.74 3.21 1.56 3.17 1.63"/><polygon class="cls-1" points="3.33 1.57 3.35 1.67 3.38 1.6 3.33 1.57"/><path class="cls-1" d="M13.71,1.67h0Z" transform="translate(-0.2)"/><path class="cls-1" d="M13.42,1.54l0,0S13.44,1.54,13.42,1.54Z" transform="translate(-0.2)"/><path class="cls-1" d="M7.78,1.41c0,.1.09.25.1.14V1.44A.08.08,0,0,1,7.78,1.41Z" transform="translate(-0.2)"/><path class="cls-1" d="M10.87,1.29v0l-.07.09Z" transform="translate(-0.2)"/><path class="cls-1" d="M11,.87l.06.09A.24.24,0,0,0,11,.87Z" transform="translate(-0.2)"/><path class="cls-1" d="M15.27,2.38l.1-.07C15.31,2.27,15.31,2.33,15.27,2.38Z" transform="translate(-0.2)"/><path class="cls-1" d="M5.27,1.27a.22.22,0,0,0,.13.06C5.34,1.27,5.28,1.18,5.27,1.27Z" transform="translate(-0.2)"/><path class="cls-1" d="M13.13,2.67a0,0,0,0,0,0,0A0,0,0,0,0,13.13,2.67Z" transform="translate(-0.2)"/><path class="cls-1" d="M5.54,1.33l0,0a.14.14,0,0,1-.11,0S5.49,1.4,5.54,1.33Z" transform="translate(-0.2)"/><path class="cls-1" d="M19.49,6.89v0S19.5,6.9,19.49,6.89Z" transform="translate(-0.2)"/><path class="cls-1" d="M19.28,8.93a.33.33,0,0,1,0-.06A.15.15,0,0,0,19.28,8.93Z" transform="translate(-0.2)"/><path class="cls-1" d="M4.23,1.48s0,0,0,0Z" transform="translate(-0.2)"/><path class="cls-1" d="M4,1.09s0,0,0-.06S4,1.08,4,1.09Z" transform="translate(-0.2)"/><path class="cls-1" d="M5.9.65h0S5.9.63,5.9.65Z" transform="translate(-0.2)"/><path class="cls-1" d="M4.17,1.44l0,0Z" transform="translate(-0.2)"/><path class="cls-1" d="M4.18,1.49h0S4.15,1.51,4.18,1.49Z" transform="translate(-0.2)"/><path class="cls-1" d="M4.28,1.46a.06.06,0,0,1-.06,0,0,0,0,0,1,0,0Z" transform="translate(-0.2)"/><path class="cls-1" d="M17.28,4.45h0C17.34,4.46,17.32,4.45,17.28,4.45Z" transform="translate(-0.2)"/><polygon class="cls-1" points="8.71 0.42 8.71 0.43 8.71 0.43 8.71 0.42"/><path class="cls-1" d="M9.07.36C9,.49,9,.47,8.92.43V.75Z" transform="translate(-0.2)"/><path class="cls-1" d="M14.39,2l0-.14c.18-.08.24,0,.21-.15-.16.29-.37-.16-.54.14l0-.09s0,0,0,0c0-.2-.2.19-.33.07s-.06-.11,0-.13l-.16,0s0-.07,0-.05l-.2,0h0l-.18.11c0-.07,0,0,0-.07l-.13,0a.12.12,0,0,1,.17-.11c0-.35-.11.05-.25-.22h.12c0-.2-.1-.17-.17-.32,0,.07.12.37,0,.4s-.06-.06-.14,0,0-.11-.1-.13l.06-.15c-.1,0-.12.09-.19.14s-.06-.17,0-.28c-.14-.07,0,.22-.15.2s-.2-.07-.37,0,0-.09,0-.14l-.12.1s0-.05,0-.07,0,.16-.16.17c-.08.16-.13-.32-.31-.16,0-.05,0-.09,0-.15a.86.86,0,0,0-.35.19L11.09,1c.05.14-.09.24-.22.33l0,.15-.17.05s0-.08.06-.14l0,0c0-.07,0-.16.07-.23l0,.11A.65.65,0,0,0,11,1a.06.06,0,0,1-.06,0A.09.09,0,0,0,11,1s0,0-.06.05V.82l0,.06L10.72.72c-.19.14-.37.38-.62.4.09-.12.06-.21.09-.36,0,.18.2,0,.31,0-.06,0,0-.1,0-.12l-.24.1c0-.12,0-.1-.07-.17,0,.26-.2.14-.3.19s0-.16.15-.12c-.08-.21-.2.26-.29.08,0,0,0,0,.06,0S9.59.7,9.63.64h0C9.49.58,9.13.55,9.08.76c0,0,.06-.25.07-.29l-.4.66c.05-.18,0-.62.16-.7,0,0-.08-.08-.18,0s0,.27,0,.28C8.65.47,8.67.57,8.56.38c0,0-.05.33-.11.31A1.55,1.55,0,0,1,8.51.38l-.2.26a.57.57,0,0,0,0-.32c0,.06-.15,0-.19,0l.06.07C8,.33,8,.76,7.78.73c0-.06.09-.35,0-.4-.06.14-.26.67-.43.77l0-.09-.14.08a4.92,4.92,0,0,1,.5-.8c-.06-.07,0-.1-.12-.1s.07-.11.1-.11L7.43,0c0,.17-.2.15-.21.29L7.51.14c0,.17-.2.46-.37.42S7.2.26,7.2.21,7,.3,7,.26L7.09.18C7,.11,6.92.39,6.81.22c0,0-.11-.22-.12-.13a2.61,2.61,0,0,1,0,.93A2,2,0,0,1,6.43.74C6.37.58,6.55.38,6.5.25a.44.44,0,0,1-.06.12s0-.14-.07-.13c0,.17-.19,0,0,.15-.09,0-.1,0-.2,0a.57.57,0,0,1-.19.42.35.35,0,0,0,0-.12A2.56,2.56,0,0,0,5.45.56S5.35.47,5.38.4s0,.09-.09.09.11,0,0-.2c0,.1-.14.14-.21.21s.18,0,.25,0A.65.65,0,0,1,5.09,1C5,1.07,5,.87,5,.9c-.27,0-.18.39-.41.26S4.55.9,4.52.8s.19.06.26,0l-.1,0c0-.05.1-.09.15-.05C4.74.63,4.38.77,4.17.7c0,.05-.09.1,0,.15l.06,0c.08.1-.09.17,0,.21-.08.09-.15.22-.27.18l-.05-.14s.09.07.11,0-.22-.17-.23,0l.1.09c-.07.09-.13.27-.24.25.08.13,0,0,.13.13-.11-.2.26-.05.11-.25.11.18.14.06.27.21,0,0-.05-.08,0-.08s0,0,0,0h0a.12.12,0,0,1-.06-.06c0-.13.16-.15.2-.22s0,.07,0,.11l.06-.09c0,.11.16.16,0,.24h.1c.08.06.16.07.21,0s.11-.14.08,0L5,1.29v0c.16,0,.33-.21.53,0a.21.21,0,0,1,.21,0l0,.09c.07,0,.21.1.24,0,.08.26.35.07.48.12V1.35a.68.68,0,0,0,.29-.06V1.18c.1-.09.24.09.39.09,0,.05-.05,0-.08,0,.16.27.4-.14.55.06,0,0,.08,0,.1,0h0l0,.06,0-.06.13,0v.12h0c0,.05,0-.05,0-.14L8,1.23c0,.19.13-.05.16.16,0-.1.24,0,.3-.25,0,0,0,0,0,0s.1.06.15,0v.16l.14-.19c.06.11.08.16,0,.27.19-.15.15,0,.32-.2l0,.09c.05,0,.16-.11.17,0s.56.11.81.35c0-.3.11.15.17-.06,0,.07,0,.11,0,.16.16,0,.19.15.34,0,0,.07-.06.09-.05.13s.06,0,.06,0,0,0-.06.08c.15,0,.21-.18.27-.37.05.11.09.11.18,0,0,.07,0,.15-.06.15s.29.17.34,0c0,0,.06,0,.08,0a2.25,2.25,0,0,0,.24.08l0,0c.09-.17.1,0,.2,0h0c.17.2.11,0,.27.19l0-.12c.1-.24.14.2.29.15l0-.08c.09-.06.06.39.11.45s0,0-.06,0c.11.21.07-.14.21-.12,0,.08-.11.19,0,.23s.34-.16.39,0c0-.07,0-.14.08-.16s.13.33.29.17a.13.13,0,0,1,0,.06c.09,0,.25,0,.34-.07-.12.4.5,0,.32.36L14,3l0,0c.11.09.2,0,.29,0s0,.06,0,.08c.15.16.17.15.41.09l0,.11c.08,0,.15.33.4.31l0,0c.28,0,.23.59.57.27h.18c-.13-.14.15-.13.13-.24s.07.23,0,.19v0c-.18.17.14.21,0,.34a7,7,0,0,1,.73.83l.1-.16.08.1s-.07.13-.13.06c0,.11.17,0,.2,0,.07.18-.2.1-.17.14l.06,0v0c.09,0,.15-.06.22,0s-.06.1,0,.13,0,0,0,0l.09.12.07-.14c.1,0,.09.12.16,0-.12.25.31.51.3.61a.3.3,0,0,1,.26.2S18,5.94,18,6c-.29.17,0,.24-.15.45.08-.16.2.21.32,0,0,.08-.1.07-.13.17.23.09.17.43.34.61,0,0,.07-.09.16-.08l-.12.23s.24-.09.16.07c0,0,.06-.08.09-.06,0,.54.65.82.47,1.46.05-.1.08-.06.1,0s.1,0,.15-.07l-.07.26c.17,0,.1.2.26.16l-.05-.05c.2,0,.33-.27.56-.35-.24,0,.18-.38-.17-.42,0-.05.08,0,.12,0s-.15,0-.14-.15h0a3,3,0,0,1-.18-.69l-.09.07c0-.07,0-.1,0-.14-.2,0,.07.17-.13.2.17-.19-.21-.41,0-.6-.06-.09-.11.09-.16,0L19.44,7l-.09,0c0-.07,0-.14.09-.18s0,0,0,0-.15-.2-.14-.24v.11c-.21-.2-.3-.56-.59-.69l0,0c-.21-.11,0-.17-.22-.33h0a.2.2,0,0,1-.16-.09c.08,0,0-.17.14-.15-.22-.12-.14,0-.39,0l.05-.08c-.1,0-.14,0-.23,0,.12,0,.06-.15.21-.13,0-.32-.38-.14-.23-.42-.26.09,0,.25-.05.24s-.21.06-.23,0,.17-.32,0-.45c0,0,0,0,0,0s-.16,0-.14-.18c-.15.07-.08-.09-.23,0l.16.09c-.11,0-.34.06-.37-.13a.34.34,0,0,1,.15,0c0-.08-.09,0-.09-.12s.18.13.37.1c0-.1-.25,0-.06-.16-.25.14-.11-.16-.35-.11l.09-.08s-.09,0-.12,0L17.28,4c-.17,0-.08-.22-.2-.24.16.14-.06.14,0,.26-.31,0,.09-.33-.17-.48,0,0,.06.15,0,.15a.36.36,0,0,1,0-.21c-.16-.11-.05.11-.16.12,0-.16-.11,0-.21,0l.08-.1c-.12-.2-.2.16-.3,0l.17-.08-.11,0,.1-.1c-.15,0-.17,0-.23-.12,0,.08-.15.16-.23.11s.1-.07,0-.14C16,3,16,3,16,3.1l.1-.07c0-.11-.14-.13-.18-.16s0,0,0,.06h-.26s0-.07.08-.08-.1,0-.15,0,.12-.16.22-.15l-.23,0s0-.15,0-.16-.32,0-.4-.13l-.07,0c-.1-.1-.15-.26-.35-.22V2c-.13,0,0,.25-.21.21s0-.15,0-.22-.3.14-.35-.05C14.33,1.92,14.35,2,14.39,2ZM13,1.41s.12-.06.11,0S13,1.47,13,1.41ZM10.72,1s.06,0,.08.05S10.75,1.05,10.72,1Zm-6.11.31h0C4.67,1.36,4.65,1.34,4.61,1.32Zm-.13,0a0,0,0,0,0,0,.05s0,0,.06,0S4.51,1.26,4.48,1.29ZM17,5.3v0C17.05,5.28,17,5.29,17,5.3Z" transform="translate(-0.2)"/><path class="cls-1" d="M11,.92A.13.13,0,0,1,11,1S11,1,11,.92Z" transform="translate(-0.2)"/><polygon class="cls-1" points="15.05 2.39 15.05 2.39 15.07 2.38 15.05 2.39"/><path class="cls-1" d="M6.45.19a.15.15,0,0,1,0,.06S6.49.2,6.45.19Z" transform="translate(-0.2)"/><path class="cls-1" d="M3.87,1.6l.07-.05s-.06,0-.08,0S3.89,1.59,3.87,1.6Z" transform="translate(-0.2)"/><path class="cls-1" d="M3,1s0,0,0,0l0,.05S3.07,1.05,3,1Z" transform="translate(-0.2)"/><path class="cls-1" d="M3.71,1.23c0-.1-.07-.06-.12,0h0C3.61,1.34,3.66,1.28,3.71,1.23Z" transform="translate(-0.2)"/><path class="cls-1" d="M3.58,1.21H3.53C3.53,1.28,3.55,1.23,3.58,1.21Z" transform="translate(-0.2)"/><path class="cls-1" d="M4.33,1.38s0,.13,0,.09C4.31,1.6,4.46,1.29,4.33,1.38Z" transform="translate(-0.2)"/><polygon class="cls-1" points="3.4 0.91 3.44 1.03 3.45 0.92 3.4 0.91"/><path class="cls-1" d="M4.07.91,4,.89a0,0,0,0,1,0,0C4,.93,4.08,1,4.07.91Z" transform="translate(-0.2)"/><path class="cls-1" d="M4,.94a.09.09,0,0,0-.07,0A.11.11,0,0,0,4,.94Z" transform="translate(-0.2)"/><polygon class="cls-1" points="3.51 0.84 3.54 0.86 3.61 0.86 3.51 0.84"/><path class="cls-1" d="M5.06.81l.1-.05s0-.06-.06,0S5,.77,5.06.81Z" transform="translate(-0.2)"/><path class="cls-1" d="M4.72.49a.28.28,0,0,1,.06.09l0-.15Z" transform="translate(-0.2)"/><path class="cls-1" d="M5,.43S5.17.29,5,.32,4.92.4,5,.43Z" transform="translate(-0.2)"/><polygon class="cls-1" points="6.38 0.62 6.36 0.62 6.35 0.87 6.38 0.62"/><path class="cls-1" d="M8,.13C7.9.06,8,.28,7.87.2s.08.07,0,.12S8,.3,8,.13Z" transform="translate(-0.2)"/><path class="cls-1" d="M7.92.32l0,0Z" transform="translate(-0.2)"/><polygon class="cls-1" points="19.07 9.23 19.05 9.32 19.11 9.25 19.07 9.23"/><path class="cls-1" d="M19.5,9.3l-.14.07h.15S19.47,9.32,19.5,9.3Z" transform="translate(-0.2)"/><path class="cls-1" d="M12.88,1l0,0c0,.05,0,.06.05.08Z" transform="translate(-0.2)"/><polygon class="cls-1" points="13.66 1.57 13.65 1.56 13.62 1.71 13.66 1.57"/><path class="cls-1" d="M14.79,1.83l-.11,0C14.76,1.81,14.72,2,14.79,1.83Z" transform="translate(-0.2)"/><path class="cls-1" d="M16.36,9.43s0,.09,0,.11S16.36,9.4,16.36,9.43Z" transform="translate(-0.2)"/><polygon class="cls-1" points="16.25 9.16 16.26 9.21 16.26 9.1 16.25 9.16"/><path class="cls-1" d="M16.61,9.14c0-.17-.05,0-.09,0v.1S16.58,9.09,16.61,9.14Z" transform="translate(-0.2)"/><path class="cls-1" d="M16.73,9.51c0-.07,0-.06,0,0v0Z" transform="translate(-0.2)"/><path class="cls-1" d="M16.72,9.51s0,.06,0,0Z" transform="translate(-0.2)"/><path class="cls-1" d="M16.78,9.46v.07s0,0,0,.07A.24.24,0,0,0,16.78,9.46Z" transform="translate(-0.2)"/><path class="cls-1" d="M16.79,9.33v0S16.78,9.38,16.79,9.33Z" transform="translate(-0.2)"/><path class="cls-1" d="M16.76,9.42l0-.06s0-.09,0,0C16.77,9.33,16.77,9.38,16.76,9.42Z" transform="translate(-0.2)"/><path class="cls-1" d="M16.75,9.39a.12.12,0,0,1,0-.12S16.71,9.42,16.75,9.39Z" transform="translate(-0.2)"/><path class="cls-1" d="M16.59,9l0-.05V9S16.6,9,16.59,9Z" transform="translate(-0.2)"/><path class="cls-1" d="M16.9,9.55V9.44A.27.27,0,0,1,16.9,9.55Z" transform="translate(-0.2)"/><path class="cls-1" d="M16.89,9.4l0-.07S16.88,9.36,16.89,9.4Z" transform="translate(-0.2)"/><polygon class="cls-1" points="16.57 9.13 16.54 9.27 16.58 9.13 16.57 9.13"/><polygon class="cls-1" points="16.78 9.55 16.77 9.64 16.79 9.5 16.78 9.55"/><path class="cls-1" d="M17,9.53c0,.08,0,.13,0,.17s0-.07,0-.13S17.06,9.59,17,9.53Z" transform="translate(-0.2)"/><path class="cls-1" d="M17.1,9.49l0,.08A.45.45,0,0,0,17.1,9.49Z" transform="translate(-0.2)"/><path class="cls-1" d="M17,9.35a.23.23,0,0,0,0,.11l0-.11Z" transform="translate(-0.2)"/><path class="cls-1" d="M17,9.35Z" transform="translate(-0.2)"/><path class="cls-1" d="M16.94,9.35h0S16.94,9.33,16.94,9.35Z" transform="translate(-0.2)"/><path class="cls-1" d="M16.84,9.23a.33.33,0,0,0,0-.22A.81.81,0,0,1,16.84,9.23Z" transform="translate(-0.2)"/><path class="cls-1" d="M16.93,9.22l0,0a.34.34,0,0,1,0,.1Z" transform="translate(-0.2)"/><polygon class="cls-1" points="16.74 9.18 16.73 9.22 16.73 9.22 16.74 9.18"/><path class="cls-1" d="M17.06,9.39c0-.05,0-.05,0-.06s0,0,0,0S17.05,9.39,17.06,9.39Z" transform="translate(-0.2)"/><path class="cls-1" d="M17,9.36h0Z" transform="translate(-0.2)"/><polygon class="cls-1" points="17.02 9.33 17.02 9.31 17.02 9.33 17.02 9.33"/><path class="cls-1" d="M17.05,9.28s0,0,0,0,0,0,0,0Z" transform="translate(-0.2)"/><path class="cls-1" d="M17.14,9.44l0-.06S17.13,9.47,17.14,9.44Z" transform="translate(-0.2)"/><path class="cls-1" d="M17,9.38h0S17,9.4,17,9.38Z" transform="translate(-0.2)"/><path class="cls-1" d="M17,9.38l0-.06s0,0,0,0Z" transform="translate(-0.2)"/><path class="cls-1" d="M17.3,8.65c0,.1,0,.19-.07.08a2.63,2.63,0,0,0,0,.58.44.44,0,0,1,0-.14c0-.05-.05-.13,0-.21s0,0,0,.09c0-.13.05-.18.06-.36l0,.06S17.31,8.68,17.3,8.65Z" transform="translate(-0.2)"/><path class="cls-1" d="M17.18,9.3h0s0,.06,0,.14a.6.6,0,0,0,0-.12h0Z" transform="translate(-0.2)"/><path class="cls-1" d="M17.12,9.31a.78.78,0,0,0,0-.27s0,.09,0,.14,0,.06,0,.12,0,0,0,0l0,.05h0v0s0,0,0,0h0l.05-.06Z" transform="translate(-0.2)"/><path class="cls-1" d="M16.86,8.78v0Z" transform="translate(-0.2)"/><path class="cls-1" d="M16.88,8.84s0,.06,0,.05,0-.05,0-.09a.19.19,0,0,0,0,.13h0a.83.83,0,0,1,.05.18C16.91,9,16.9,8.94,16.88,8.84Z" transform="translate(-0.2)"/><path class="cls-1" d="M17,9.05l0-.05,0-.1V9S17,9,17,9.05Z" transform="translate(-0.2)"/><polygon class="cls-1" points="17.02 9.39 17.01 9.5 17.04 9.34 17.02 9.39"/><polygon class="cls-1" points="17.07 9.38 17.07 9.48 17.08 9.42 17.07 9.38"/><path class="cls-1" d="M19.65,8.6l0,0Z" transform="translate(-0.2)"/><path class="cls-1" d="M19.64,8.63l0,.06Z" transform="translate(-0.2)"/><path class="cls-1" d="M18.56,9.6c0,.1,0,.24,0,.13l0-.1S18.56,9.63,18.56,9.6Z" transform="translate(-0.2)"/><path class="cls-1" d="M19.66,9.33l0,0,0,.13Z" transform="translate(-0.2)"/><path class="cls-1" d="M19.51,8.79l0,.09Z" transform="translate(-0.2)"/><path class="cls-1" d="M19.57,8.33l-.11-.06Z" transform="translate(-0.2)"/><path class="cls-1" d="M17.81,9.4a.15.15,0,0,0,0,.07C17.83,9.4,17.83,9.31,17.81,9.4Z" transform="translate(-0.2)"/><path class="cls-1" d="M20.66,10a.41.41,0,0,0-.05-.09A.26.26,0,0,0,20.66,10Z" transform="translate(-0.2)"/><path class="cls-1" d="M17.88,9.48v0s0,0,0,0S17.86,9.55,17.88,9.48Z" transform="translate(-0.2)"/><path class="cls-1" d="M20,6.67h0Z" transform="translate(-0.2)"/><path class="cls-1" d="M21.22,6.53v0S21.23,6.54,21.22,6.53Z" transform="translate(-0.2)"/><path class="cls-1" d="M17.48,9.44s0,0,0,0Z" transform="translate(-0.2)"/><path class="cls-1" d="M17.47,9a.15.15,0,0,1,0-.06Z" transform="translate(-0.2)"/><path class="cls-1" d="M18.13,8.84Z" transform="translate(-0.2)"/><path class="cls-1" d="M17.47,9.39a0,0,0,0,0,0,0Z" transform="translate(-0.2)"/><path class="cls-1" d="M17.47,9.44h0S17.45,9.46,17.47,9.44Z" transform="translate(-0.2)"/><path class="cls-1" d="M17.5,9.44a0,0,0,0,1,0,0v0Z" transform="translate(-0.2)"/><path class="cls-1" d="M20,7.79h0S20,7.78,20,7.79Z" transform="translate(-0.2)"/><polygon class="cls-1" points="18.99 8.63 18.99 8.63 18.99 8.64 18.99 8.63"/><path class="cls-1" d="M19.23,8.56c0,.13,0,.11,0,.08l-.08.3Z" transform="translate(-0.2)"/><path class="cls-1" d="M19.63,8.48l-.09-.07a2.32,2.32,0,0,0-.21-.22,4.1,4.1,0,0,1,.33.37l-.07-.06v0c-.14-.16.22.26.17.24a.69.69,0,0,1-.1-.12l.07.11s-.06-.07,0-.07l0,.06h0l.15.23c0-.05,0-.05-.07-.1l.07.12a1.13,1.13,0,0,1-.14-.22c-.29-.42.07.12-.1-.11l0-.07-.21-.31.33.52s0,0,0,.06c-.1-.17-.07-.12-.07-.1l-.13-.23.16.3-.21-.36h0s.17.3.17.33,0,0,0,.12c0-.08-.06-.14-.1-.2l.08.17,0-.09c0,.07.1.22.11.27.09.23-.18-.36-.09-.1l-.08-.21.08.32-.07-.14a1.51,1.51,0,0,1,.12.45l.07.19,0,.09a1.18,1.18,0,0,1,0-.19v.05a1.67,1.67,0,0,1-.08-.3l.05.12a2.7,2.7,0,0,0-.09-.36.2.2,0,0,0,0,.05l0-.08s0,0,0,.07l-.07-.22,0,.09-.06-.15c0,.2,0,.49,0,.55a3.32,3.32,0,0,0,0-.41c0,.19,0-.07.05,0a.35.35,0,0,1,0-.14.81.81,0,0,1,0,.16.63.63,0,0,0,0-.17c0,.28,0,.17,0,.24,0-.09,0-.18,0-.15,0-.21,0,.31-.05.13,0,0,0,0,0,0s0,0,0-.08h0s-.09,0-.15.17l.08-.29a3.81,3.81,0,0,1-.27.66c.06-.17.18-.58.23-.68s0-.05,0,0a1.2,1.2,0,0,1-.08.27c0-.21,0-.11,0-.29,0,0-.11.31-.13.29s.09-.27.11-.29l-.14.24a1.54,1.54,0,0,0,.09-.3s-.05,0-.07,0v.07c-.05-.06-.18.36-.23.33a1.53,1.53,0,0,0,.1-.38c-.06.13-.26.64-.33.74V9.23l-.06.08a7.18,7.18,0,0,1,.36-.78c0-.07,0-.1,0-.1s.05-.11.07-.11l-.07-.07c0,.16-.11.14-.14.28l.13-.15c0,.17-.18.45-.23.41a2.72,2.72,0,0,1,.11-.34c0,.05-.09.09-.08.05l.05-.08c0-.07-.11.2-.11,0,0,0,0-.22,0-.12a6.64,6.64,0,0,1-.21.9,2,2,0,0,1,0-.29c0-.15.11-.34.13-.47l-.05.12s0-.14,0-.13c0,.17-.05,0,0,.14s0,0-.06,0a1.4,1.4,0,0,1-.15.4.74.74,0,0,0,0-.12c-.06,0-.07-.11-.13-.12a1.09,1.09,0,0,1,0-.17s0,.08-.05.09c0-.15.05,0,.05-.2,0,.1-.07.13-.1.19s.05,0,.08,0a1.19,1.19,0,0,1-.18.5c0,.05,0-.14,0-.11s-.12.36-.17.2,0-.27,0-.36,0,.09.07.08l0-.06s.05-.08.06,0c0-.13-.14,0-.2-.16a.29.29,0,0,0,0,.14l0,0c0,.11-.06.15,0,.2s-.07.19-.1.12V9s0,.09,0,0,0-.21-.08,0l0,.1c0,.08-.08.24-.1.19,0,.15,0,0,0,.16,0-.22.07,0,.06-.22,0,.21,0,.09,0,.27,0-.05,0-.1,0-.07v0h0a.19.19,0,0,1,0-.08c0-.11.07-.1.09-.16s0,.06,0,.11l0-.09c0,.12,0,.19,0,.26h0c0,.07,0,.1.05.05s.06-.12,0,0l.06-.06v0c.05,0,.14-.17.16,0,0,0,.05-.06.07,0v.1s0,.11.07,0c0,.26.09.08.12.13l0-.12s.06,0,.1-.06l0-.11c.05-.08.05.1.1.1s0,0,0,0c0,.26.16-.15.16,0,0,0,0,0,0,0h0v0l.05,0,0,.12h0s0-.06.05-.14a.43.43,0,0,0,0-.07c-.05.19.06-.05,0,.15,0-.09.09,0,.17-.24,0,0,0,0,0,0s0,.05.05,0l0,.15.1-.19a.37.37,0,0,1-.07.26c.14-.14.09,0,.19-.19l0,.09s.08-.11.07,0,.23.11.38.39c-.06-.36.08.19.05-.08a.58.58,0,0,1,0,.2c.06,0,.14.2.14,0,0,.09,0,.12,0,.18s0-.07,0,0a.11.11,0,0,1,0,.1c.09,0,0-.24-.05-.51.07.15.08.14.05,0,0,.1.09.2.06.21s.19.22.11,0c0,.06,0,0,0,0s.07.07.11.07l0-.05c-.1-.28,0,0,0-.06l0,0c.19.27,0-.09.19.22l-.1-.2c-.19-.38.13.18.16.18v0L20.28,10c-.05-.12.36.57.38.55a1.17,1.17,0,0,1,.05.11c.14.13-.14-.26-.17-.38.08.12.19.34.21.31s-.23-.53-.08-.37a1,1,0,0,1-.16-.24c0-.07.23.18,0-.11l.05,0a1.86,1.86,0,0,0-.17-.36c.38.4-.17-.4.18,0V9.35l0,0c0-.05,0-.15-.14-.24a.24.24,0,0,1,.08.06c.08,0,.07-.08-.1-.27l.12.07c-.07-.06.2-.05.07-.22l.06,0c-.13-.15.37-.19-.07-.34l-.1-.09c0,.08-.19,0-.27,0s.15,0,.17,0h0c.23,0,.1-.07.25,0,0-.13.16-.23.19-.34L20.7,8l0,0s.14,0,.13,0-.08-.06-.12-.07.21.06.22,0v0h0c-.07,0-.14-.05-.13-.08a.38.38,0,0,1,.12,0s0,0,0,0l0,0h-.15c-.07,0,0,0-.15-.06.26,0,.13-.16.21-.17-.1,0-.09-.08-.07-.12s-.19,0-.16,0c.32.08.16,0,.4,0-.16,0,0-.1-.25-.12,0,0,.12,0,.2,0-.1-.09.12-.12.1-.2A.77.77,0,0,1,20.9,7l.22,0S20.89,7,21,7l-.1,0c.24-.08-.06-.37.36-.34-.08,0-.09,0-.08,0a1.58,1.58,0,0,1-.16-.07l.18,0c-.14-.08,0-.06-.12-.14l0,0a4.9,4.9,0,0,0-.6-.26c.17.12-.34,0-.08.14-.05,0-.07,0-.12-.06s.1.08,0,.09h0c0,.1-.12.1-.22.18l.11,0s-.05,0-.09,0c.17.09,0,0,.21,0-.24,0-.05.15-.32.09,0,0,.14,0,.13.06H20.1l.09,0a.38.38,0,0,1-.17,0s0,0,0,0,0,.09,0,.1l.05,0c0,.11-.08.19,0,.32h.05c.09.09-.07,0,0,.12h0c.05,0,.07,0,.06.07s-.13,0-.19,0,.07,0,.26.15h-.09c.08,0,.12,0,.14.08s-.14,0-.24-.06.18.15-.12.13c.24.08.15,0,.2,0s.18.07.15.09-.33,0-.33,0l0,0c-.07,0,.08.06,0,.07.15,0,0,0,.18.08l0-.07s.26.11.14.15L20,7.79c-.06,0,0,0,0,0s0-.07-.17-.13.13.09-.08,0c.26.08-.05.06.15.14l-.12,0,.07,0-.15,0c.13,0-.12,0-.06.09s.15,0,.24,0-.32,0-.28.1.08,0,.13,0a.37.37,0,0,1-.14,0c0,.06.12,0,.19,0-.14,0,.06,0,.1.08l-.12,0c-.09.06.24.06.14.11l-.16-.06,0,0-.14,0c.1,0,.07,0,0,0s.22.05.22.07-.11,0-.1,0-.16-.05-.05,0l-.12,0c-.08,0,0,0,0,0h0l.16.08-.11,0,.07,0-.23-.1.1.06-.15-.06c-.05,0,.18.11.11.08l0,0s-.13-.07,0,0l-.16-.13c0,.05.2.16.26.23s-.14-.11-.18-.15.24.25.11.14S19.64,8.5,19.63,8.48Zm.05.27,0-.05C19.77,8.88,19.72,8.8,19.68,8.75ZM19.53,9s0,0,0,0S19.55,9.07,19.53,9Zm-1.92.33h0C17.63,9.4,17.62,9.38,17.61,9.36Zm0-.06a.09.09,0,0,0,0,0s0,0,0,0S17.6,9.27,17.58,9.3Zm3.28-1.49h0S20.83,7.8,20.86,7.81Z" transform="translate(-0.2)"/><path class="cls-1" d="M19.52,8.85l0,.08A.41.41,0,0,0,19.52,8.85Z" transform="translate(-0.2)"/><polygon class="cls-1" points="19.38 8.34 19.38 8.34 19.36 8.33 19.38 8.34"/><path class="cls-1" d="M18.4,8.41a.13.13,0,0,1,0,.06S18.42,8.42,18.4,8.41Z" transform="translate(-0.2)"/><path class="cls-1" d="M17.36,9.48l0,0s0,0,0,0S17.37,9.48,17.36,9.48Z" transform="translate(-0.2)"/><path class="cls-1" d="M17.19,8.73h0V8.8S17.2,8.75,17.19,8.73Z" transform="translate(-0.2)"/><path class="cls-1" d="M17.37,9.08c0-.1,0-.06,0-.05h0C17.33,9.17,17.35,9.13,17.37,9.08Z" transform="translate(-0.2)"/><path class="cls-1" d="M17.33,9h0C17.31,9.09,17.32,9.05,17.33,9Z" transform="translate(-0.2)"/><path class="cls-1" d="M17.52,9.36s0,.13,0,.09C17.48,9.58,17.58,9.3,17.52,9.36Z" transform="translate(-0.2)"/><polygon class="cls-1" points="17.18 8.75 17.18 8.87 17.19 8.77 17.18 8.75"/><path class="cls-1" d="M17.52,8.85l0,0s0,0,0,0S17.52,8.89,17.52,8.85Z" transform="translate(-0.2)"/><path class="cls-1" d="M17.48,8.86s0,0,0,0Z" transform="translate(-0.2)"/><polygon class="cls-1" points="17.22 8.71 17.23 8.74 17.25 8.75 17.22 8.71"/><path class="cls-1" d="M17.84,8.92l0,0s0-.07,0-.06A.24.24,0,0,0,17.84,8.92Z" transform="translate(-0.2)"/><path class="cls-1" d="M17.79,8.56v.1l0-.15Z" transform="translate(-0.2)"/><path class="cls-1" d="M17.89,8.54s.07-.11,0-.11S17.87,8.5,17.89,8.54Z" transform="translate(-0.2)"/><polygon class="cls-1" points="18.15 8.84 18.15 8.84 18.09 9.08 18.15 8.84"/><path class="cls-1" d="M19,8.37c0-.07-.06.15-.07.07s0,.06,0,.11S18.93,8.54,19,8.37Z" transform="translate(-0.2)"/><path class="cls-1" d="M18.88,8.55l0,0Z" transform="translate(-0.2)"/><polygon class="cls-1" points="21.17 6.53 21.22 6.54 21.14 6.51 21.17 6.53"/><path class="cls-1" d="M21.22,6.41l.15.07-.13-.08S21.25,6.42,21.22,6.41Z" transform="translate(-0.2)"/><path class="cls-1" d="M19.4,8.32l0,0,0,.07Z" transform="translate(-0.2)"/><polygon class="cls-1" points="19.31 8.41 19.31 8.41 19.44 8.57 19.31 8.41"/><path class="cls-1" d="M19.35,8.21h0S19.52,8.35,19.35,8.21Z" transform="translate(-0.2)"/></g></g></svg>